# xmcd
#
# Track frame offsets: 
#        150
#        12401
#        23456
#        40506
#        57817
#        74689
#        96044
#        107389
#        120457
#        137105
#        149735
#        162924
#        183401
#        200787
#        212090
#        229987
#
# Disc length: 3266 seconds
#
# Revision: 0
# Processed by: cddbd v1.5.2PL0 Copyright (c) Steve Scherf et al.
# Submitted via: ExactAudioCopy v0.90b4
#
DISCID=e20cc010
DTITLE=Prairie Flyer - Selkirk Serenade
DYEAR=2003
DGENRE=Bluegrass
TTITLE0=The Thing That Makes You Rich
TTITLE1=Long Gone
TTITLE2=Goodbye, Rosalie
TTITLE3=I Think I'll Call It A Night
TTITLE4=Rambling Letters
TTITLE5=Fort Worth Blues
TTITLE6=On My Way To Birmingham
TTITLE7=Farewell, Angelina
TTITLE8=Girls From Texas
TTITLE9=Rawhide
TTITLE10=I'm Done Talkin'
TTITLE11=October Day
TTITLE12=Rollin' And Ramblin'
TTITLE13=Are You Tired Of Waiting
TTITLE14=It's Been Such A Long Time
TTITLE15=Everything's Normal
EXTD=
EXTT0=
EXTT1=
EXTT2=
EXTT3=
EXTT4=
EXTT5=
EXTT6=
EXTT7=
EXTT8=
EXTT9=
EXTT10=
EXTT11=
EXTT12=
EXTT13=
EXTT14=
EXTT15=
PLAYORDER=
